<?xml version="1.0" encoding="UTF-8"?>
<svg xmlns="http://www.w3.org/2000/svg" viewBox="0 0 39.43 38.57"><defs><style>.cls-1{fill:#555;}</style></defs><g id="Layer_2" data-name="Layer 2"><g id="Layer_1-2" data-name="Layer 1"><g id="Group_31796" data-name="Group 31796"><g id="Group_31795" data-name="Group 31795"><g id="Group_31789" data-name="Group 31789"><path id="Path_23947" data-name="Path 23947" class="cls-1" d="M38.74,38.57H.7a.7.7,0,0,1-.7-.7V14.63a.7.7,0,0,1,.29-.56L19.3.13a.74.74,0,0,1,.83,0l19,13.94a.69.69,0,0,1,.28.56V37.87A.7.7,0,0,1,38.74,38.57ZM1.4,37.18H38V15L19.72,1.56,1.4,15Z"/></g><g id="Group_31790" data-name="Group 31790"><path id="Path_23948" data-name="Path 23948" class="cls-1" d="M.7,38.57A.71.71,0,0,1,0,37.86a.78.78,0,0,1,.25-.53L15.1,25.18a7.65,7.65,0,0,1,9.29,0L39.18,37.33a.7.7,0,0,1,0,1,.68.68,0,0,1-.87.09L23.51,26.3a6.29,6.29,0,0,0-7.53,0L1.14,38.41A.7.7,0,0,1,.7,38.57Z"/></g><g id="Group_31791" data-name="Group 31791"><path id="Path_23949" data-name="Path 23949" class="cls-1" d="M14.94,26.38a.71.71,0,0,1-.42-.14L.68,15.75a.7.7,0,0,1,.84-1.11L15.36,25.13a.7.7,0,0,1,.12,1A.68.68,0,0,1,14.94,26.38Z"/></g><g id="Group_31792" data-name="Group 31792"><path id="Path_23950" data-name="Path 23950" class="cls-1" d="M24.5,26.38a.72.72,0,0,1-.69-.71.75.75,0,0,1,.27-.54L37.92,14.64a.71.71,0,0,1,1,0,.7.7,0,0,1,0,1l-.12.09L24.92,26.24A.71.71,0,0,1,24.5,26.38Z"/></g><g id="Group_31793" data-name="Group 31793"><path id="Path_23951" data-name="Path 23951" class="cls-1" d="M18.87,17.55h-.29a2.25,2.25,0,0,1-1.76-.8,2.32,2.32,0,0,1-.46-1.92l.32-1.73a3.08,3.08,0,0,1,2.93-2.46h.3a2.3,2.3,0,0,1,1.76.8,2.33,2.33,0,0,1,.46,1.92l-.32,1.73A3.09,3.09,0,0,1,18.87,17.55ZM19.61,12a1.71,1.71,0,0,0-1.56,1.32l-.32,1.73a.89.89,0,0,0,.16.77.87.87,0,0,0,.69.3h.29a1.72,1.72,0,0,0,1.57-1.33l.32-1.72a.91.91,0,0,0-.16-.78.87.87,0,0,0-.69-.29Z"/></g><g id="Group_31794" data-name="Group 31794"><path id="Path_23952" data-name="Path 23952" class="cls-1" d="M20,21.06A7.07,7.07,0,1,1,25.67,9.43a5.59,5.59,0,0,1,1,4.9,5,5,0,0,1-1,1.94,3.66,3.66,0,0,1-3.85,1.27,2.2,2.2,0,0,1-1.34-2.4A8.37,8.37,0,0,1,21.8,10.8a.71.71,0,0,1,1-.16.7.7,0,0,1,.23.85,7.12,7.12,0,0,0-1.15,3.74c-.05.81.34,1,.46,1a2.28,2.28,0,0,0,2.25-.83A3.68,3.68,0,0,0,25.3,14a4.24,4.24,0,0,0-.72-3.72A5.92,5.92,0,1,0,20,19.66a6.46,6.46,0,0,0,2.53-.51.7.7,0,0,1,.95.26.71.71,0,0,1-.26,1l-.14.06A7.82,7.82,0,0,1,20,21.06Z"/></g></g></g></g></g></svg>