<?xml version="1.0" encoding="UTF-8"?>
<svg xmlns="http://www.w3.org/2000/svg" viewBox="0 0 48.21 33.44"><defs><style>.cls-1{fill:#555;}</style></defs><g id="Layer_2" data-name="Layer 2"><g id="Layer_1-2" data-name="Layer 1"><g id="Union_35" data-name="Union 35"><path id="Path_23961" data-name="Path 23961" class="cls-1" d="M23.89,33.44A4.6,4.6,0,0,1,20.55,32a5.33,5.33,0,0,1-.12-7.1,4.56,4.56,0,0,1,3.4-1.52h0a4.61,4.61,0,0,1,3.47,1.39,5,5,0,0,1,1.44,3.58,4.91,4.91,0,0,1-1.32,3.53A4.71,4.71,0,0,1,24,33.43Zm0-8.51a3.05,3.05,0,0,0-2.32,1,3.82,3.82,0,0,0,.07,5h0a3,3,0,0,0,2.28.94H24a3.15,3.15,0,0,0,2.33-1,3.47,3.47,0,0,0,.93-2.5,3.52,3.52,0,0,0-1-2.54,3.13,3.13,0,0,0-2.38-.95ZM6.26,28.88a3.23,3.23,0,0,1-2.34-1h0a3.74,3.74,0,0,1,0-5,3.28,3.28,0,0,1,2.46-1,3.35,3.35,0,0,1,2.42,1,3.54,3.54,0,0,1,1,2.54,3.44,3.44,0,0,1-1,2.47,3.3,3.3,0,0,1-2.46,1Zm.06-5.56a1.77,1.77,0,0,0-1.3.56,2.24,2.24,0,0,0,0,2.94H5a1.7,1.7,0,0,0,1.32.56,1.8,1.8,0,0,0,1.38-.56,2,2,0,0,0,.56-1.43,2.06,2.06,0,0,0-.56-1.5,1.93,1.93,0,0,0-1.34-.57Zm35,5.56a3.21,3.21,0,0,1-2.33-1h0a3.76,3.76,0,0,1,0-5,3.18,3.18,0,0,1,2.45-1,3.36,3.36,0,0,1,2.43,1,3.52,3.52,0,0,1,1,2.54,3.42,3.42,0,0,1-1,2.46,3.29,3.29,0,0,1-2.46,1Zm.07-5.56a1.75,1.75,0,0,0-1.31.56,2.24,2.24,0,0,0,0,2.94h0a1.68,1.68,0,0,0,1.32.55,1.76,1.76,0,0,0,1.38-.56,2,2,0,0,0,.56-1.43,2.1,2.1,0,0,0-.56-1.5,1.67,1.67,0,0,0-1.34-.56Zm-21.1-1-.11-.62a7.65,7.65,0,0,1,.07-3.16h0a10.35,10.35,0,0,1,1-2.59,14.13,14.13,0,0,1,1.49-2.17c.53-.62,1-1.22,1.51-1.8a11.49,11.49,0,0,0,1.12-1.57,2.42,2.42,0,0,0,.35-1.3,1.93,1.93,0,0,0-.64-1.6A2.54,2.54,0,0,0,23.35,7a3.63,3.63,0,0,0-1.92.53A9.08,9.08,0,0,0,19.7,9l-.5.52L14.33,5.18l.46-.56a13.27,13.27,0,0,1,4-3.29A11.58,11.58,0,0,1,24.08,0a13.51,13.51,0,0,1,3.63.43,8.31,8.31,0,0,1,3.05,1.51,7.31,7.31,0,0,1,2.1,2.71,9.13,9.13,0,0,1,.8,3.82,6.92,6.92,0,0,1-.52,2.84,10.89,10.89,0,0,1-1.32,2.29c-.52.67-1.06,1.33-1.63,1.94a21.64,21.64,0,0,0-1.47,1.82,7.77,7.77,0,0,0-1,1.89,4.66,4.66,0,0,0-.19,2.1l.12.84Zm1.42-3.44a6.21,6.21,0,0,0-.14,1.92L26,20.72a5.77,5.77,0,0,1,.32-2,9.4,9.4,0,0,1,1.19-2.26,21.27,21.27,0,0,1,1.59-2c.53-.58,1-1.2,1.53-1.83a9.63,9.63,0,0,0,1.14-2,5.41,5.41,0,0,0,.4-2.25,7.78,7.78,0,0,0-.67-3.22,5.93,5.93,0,0,0-1.66-2.15,6.9,6.9,0,0,0-2.5-1.24,11.37,11.37,0,0,0-3.23-.37,9.91,9.91,0,0,0-4.59,1.15A11.47,11.47,0,0,0,16.44,5l2.7,2.38a10.53,10.53,0,0,1,1.5-1.16,5.23,5.23,0,0,1,2.67-.76h0a4,4,0,0,1,2.7.87,3.45,3.45,0,0,1,1.18,2.77,3.9,3.9,0,0,1-.56,2,13,13,0,0,1-1.26,1.78l-1.51,1.8a12,12,0,0,0-1.33,1.93,8.77,8.77,0,0,0-.87,2.21Zm17.15,2.7-.1-.62a5.29,5.29,0,0,1,.09-2.17A7,7,0,0,1,39.52,17a9.68,9.68,0,0,1,1-1.44l1-1.15a6.86,6.86,0,0,0,.72-1,1.28,1.28,0,0,0,.21-.71,1,1,0,0,0-.32-.85,1.41,1.41,0,0,0-.9-.29,2.15,2.15,0,0,0-1.14.29,6.2,6.2,0,0,0-1.1.87l-.5.52L35,10.1l.47-.55a8.94,8.94,0,0,1,2.73-2.16,7.94,7.94,0,0,1,3.58-.83,9.54,9.54,0,0,1,2.43.32A5.84,5.84,0,0,1,46.3,8a5.16,5.16,0,0,1,1.41,1.89,6.32,6.32,0,0,1,.5,2.61,4.66,4.66,0,0,1-.39,2,7.44,7.44,0,0,1-.93,1.53c-.35.44-.72.87-1.09,1.27a11.58,11.58,0,0,0-1,1.14,4.88,4.88,0,0,0-.64,1.16,2.75,2.75,0,0,0-.14,1.24l.1.84Zm2.55-11.46a2.88,2.88,0,0,1,1.79.66,2.53,2.53,0,0,1,.83,2,2.85,2.85,0,0,1-.43,1.44,9,9,0,0,1-.87,1.18l-1,1.15a7.93,7.93,0,0,0-.86,1.2,5.58,5.58,0,0,0-.57,1.38,4,4,0,0,0-.11.91h2.42A4.25,4.25,0,0,1,42.8,19a6.18,6.18,0,0,1,.84-1.53,14.5,14.5,0,0,1,1.07-1.28c.35-.37.69-.76,1-1.17a5.66,5.66,0,0,0,.73-1.2,3.31,3.31,0,0,0,.26-1.35,4.83,4.83,0,0,0-.37-2,3.56,3.56,0,0,0-1-1.31,4.25,4.25,0,0,0-1.52-.79,7.7,7.7,0,0,0-2-.27,6,6,0,0,0-2.89.67A7.41,7.41,0,0,0,37.13,10l1.36,1.24a7.42,7.42,0,0,1,.86-.61,3.87,3.87,0,0,1,1.89-.5ZM3.8,21.58,3.7,21a5.29,5.29,0,0,1,.09-2.17A7,7,0,0,1,4.51,17a9.68,9.68,0,0,1,1-1.44l1-1.15a6.86,6.86,0,0,0,.72-1,1.32,1.32,0,0,0,.2-.7,1.05,1.05,0,0,0-.31-.86,1.39,1.39,0,0,0-.91-.28,2.18,2.18,0,0,0-1.14.29A5.71,5.71,0,0,0,4,12.79l-.51.51L0,10.1l.47-.55A8.94,8.94,0,0,1,3.2,7.39a8.21,8.21,0,0,1,3.58-.83,8.33,8.33,0,0,1,2.43.33A5.56,5.56,0,0,1,11.27,8a5,5,0,0,1,1.42,1.88,6.37,6.37,0,0,1,.5,2.62,4.64,4.64,0,0,1-.39,1.94,7,7,0,0,1-.92,1.53c-.35.44-.71.86-1.09,1.27a10.35,10.35,0,0,0-1,1.14,4.88,4.88,0,0,0-.64,1.16,2.75,2.75,0,0,0-.14,1.24l.1.84ZM6.34,10.13a2.77,2.77,0,0,1,1.79.65,2.51,2.51,0,0,1,.83,2,2.87,2.87,0,0,1-.42,1.43,8.55,8.55,0,0,1-.87,1.18l-1,1.16a7.29,7.29,0,0,0-.86,1.2,5.67,5.67,0,0,0-.57,1.37,3.56,3.56,0,0,0-.11.92H7.55A4.25,4.25,0,0,1,7.79,19a6.49,6.49,0,0,1,.83-1.53A14.9,14.9,0,0,1,9.7,16.17c.35-.37.69-.76,1-1.16a6.41,6.41,0,0,0,.73-1.2,3.31,3.31,0,0,0,.26-1.35,4.84,4.84,0,0,0-.38-2,3.65,3.65,0,0,0-1-1.32A4.19,4.19,0,0,0,8.8,8.34a6.93,6.93,0,0,0-2-.27,6.45,6.45,0,0,0-2.9.66A7.44,7.44,0,0,0,2.11,10l1.36,1.25a6.38,6.38,0,0,1,.86-.61,3.57,3.57,0,0,1,1.89-.5Z"/></g></g></g></svg>