<?xml version="1.0" encoding="UTF-8"?>
<svg xmlns="http://www.w3.org/2000/svg" viewBox="0 0 40.56 40.5"><defs><style>.cls-1{fill:#555;}</style></defs><g id="Layer_2" data-name="Layer 2"><g id="Layer_1-2" data-name="Layer 1"><g id="Group_31782" data-name="Group 31782"><g id="Group_30760" data-name="Group 30760"><g id="Path_23380" data-name="Path 23380"><path id="Path_23953" data-name="Path 23953" class="cls-1" d="M23,37.42A.41.41,0,0,1,23,36.6a12.28,12.28,0,0,0,6.74-2.93,13.67,13.67,0,0,0,3.76-8.93V13.46A12.87,12.87,0,0,0,21.13,1.14H19.48A12.9,12.9,0,0,0,7.14,13.47V24.76a.41.41,0,0,1-.41.41.42.42,0,0,1-.41-.41h0V13.47A13.72,13.72,0,0,1,19.47.32h1.66A13.74,13.74,0,0,1,34.29,13.49V24.76a14.3,14.3,0,0,1-4,9.49,13,13,0,0,1-7.19,3.17Z"/><path id="Path_23954" data-name="Path 23954" class="cls-1" d="M23,37.74a.73.73,0,0,1-.73-.72.72.72,0,0,1,.61-.73,11.92,11.92,0,0,0,6.56-2.85,13.29,13.29,0,0,0,3.67-8.71V13.46a12.61,12.61,0,0,0-12-12H19.48a12.5,12.5,0,0,0-12,12V24.76a.69.69,0,0,1-.21.51.77.77,0,0,1-.52.22A.73.73,0,0,1,6,24.76V13.47A14,14,0,0,1,19.46,0h1.67A14.13,14.13,0,0,1,34.61,13.47V24.76a14.61,14.61,0,0,1-4.1,9.71,13.34,13.34,0,0,1-7.37,3.26H23ZM21.13.82A13.28,13.28,0,0,1,33.77,13.45v11.3a14,14,0,0,1-3.85,9.14,12.5,12.5,0,0,1-6.92,3,.09.09,0,0,0-.08.09.13.13,0,0,0,.1.1h.06a12.71,12.71,0,0,0,7-3.08A14,14,0,0,0,34,24.75V13.49A13.5,13.5,0,0,0,21.11.64H19.47A13.41,13.41,0,0,0,6.64,13.49V24.76a.11.11,0,0,0,.09.09h0a.09.09,0,0,0,.1-.08h0V13.48A13.12,13.12,0,0,1,19.47.83Z"/></g></g><g id="Group_30761" data-name="Group 30761"><g id="Path_23381" data-name="Path 23381"><path id="Path_23955" data-name="Path 23955" class="cls-1" d="M6.32,25.34h0a6.89,6.89,0,0,1,0-13.66.41.41,0,1,1,.08.81h0a6.09,6.09,0,0,0,0,12,.39.39,0,0,1,.37.42h0v0A.39.39,0,0,1,6.32,25.34Z"/><path id="Path_23956" data-name="Path 23956" class="cls-1" d="M6.33,25.66h0a7.21,7.21,0,0,1,0-14.3.73.73,0,0,1,.79.67.71.71,0,0,1-.66.78,5.77,5.77,0,0,0,0,11.41.72.72,0,0,1,0,1.44Zm0-.32V25h0S6.4,25,6.4,25a.07.07,0,0,0-.07-.09h0a6.39,6.39,0,0,1,0-12.67.1.1,0,0,0,.08-.11A.09.09,0,0,0,6.32,12a6.58,6.58,0,0,0,0,13Z"/></g></g><g id="Group_30762" data-name="Group 30762"><g id="Path_23382" data-name="Path 23382"><path id="Path_23957" data-name="Path 23957" class="cls-1" d="M34.23,25.34a.42.42,0,0,1-.41-.37.44.44,0,0,1,.38-.45,6.08,6.08,0,0,0,0-12,.41.41,0,0,1,.07-.82,6.9,6.9,0,0,1,0,13.68Z"/><path id="Path_23958" data-name="Path 23958" class="cls-1" d="M34.23,25.66a.73.73,0,0,1-.72-.66.74.74,0,0,1,.65-.8,5.76,5.76,0,0,0,0-11.41.73.73,0,1,1,.13-1.45,7.22,7.22,0,0,1,0,14.31Zm0-13.68a.09.09,0,0,0-.09.09.11.11,0,0,0,.08.09,6.4,6.4,0,0,1,0,12.68.11.11,0,0,0-.08.11.1.1,0,0,0,.09.07h0a6.58,6.58,0,0,0,0-13Z"/></g></g><g id="Group_30763" data-name="Group 30763"><g id="Path_23383" data-name="Path 23383"><path id="Path_23959" data-name="Path 23959" class="cls-1" d="M20.27,40.18A3.15,3.15,0,1,1,23.42,37h0a3.15,3.15,0,0,1-3.14,3.15Zm0-5.46a2.33,2.33,0,1,0,2.33,2.33h0a2.32,2.32,0,0,0-2.32-2.33h0Z"/><path id="Path_23960" data-name="Path 23960" class="cls-1" d="M20.27,40.5A3.47,3.47,0,1,1,23.74,37,3.46,3.46,0,0,1,20.27,40.5Zm0-6.29A2.83,2.83,0,1,0,23.1,37h0a2.83,2.83,0,0,0-2.83-2.82Zm0,5.48A2.64,2.64,0,0,1,20,34.42v0h.31a2.65,2.65,0,0,1,0,5.29ZM20.36,35h-.09a1.95,1.95,0,1,0,.09,0Z"/></g></g></g></g></g></svg>