<?xml version="1.0" encoding="UTF-8"?>
<svg xmlns="http://www.w3.org/2000/svg" viewBox="0 0 33.47 34.31"><defs><style>.cls-1{fill:#555;}</style></defs><g id="Layer_2" data-name="Layer 2"><g id="Layer_1-2" data-name="Layer 1"><g id="Group_31776" data-name="Group 31776"><g id="Group_31776-2" data-name="Group 31776-2"><path id="Path_23933" data-name="Path 23933" class="cls-1" d="M26.68,15.89h-.11a.71.71,0,0,1-.59-.81,6.9,6.9,0,0,0-.2-3A7.21,7.21,0,0,0,24,9,5.4,5.4,0,0,0,21,7.44a4.4,4.4,0,0,0-1.91.12.71.71,0,0,1-.88-.47h0a.71.71,0,0,1,.48-.88h0a5.56,5.56,0,0,1,2.53-.16A6.75,6.75,0,0,1,25,8a8.48,8.48,0,0,1,2.15,3.62,8.28,8.28,0,0,1,.25,3.67A.7.7,0,0,1,26.68,15.89Z"/></g><g id="Group_31777" data-name="Group 31777"><path id="Path_23934" data-name="Path 23934" class="cls-1" d="M32.11,18.54a.83.83,0,0,1-.22,0,.71.71,0,0,1-.45-.89,12.47,12.47,0,0,0,0-7.78,13,13,0,0,0-2.91-4.91,11.55,11.55,0,0,0-4.7-3,10.16,10.16,0,0,0-6.31,0,.7.7,0,0,1-.89-.45h0a.71.71,0,0,1,.46-.89h0a11.52,11.52,0,0,1,7.18,0A12.81,12.81,0,0,1,29.54,4a14.33,14.33,0,0,1,3.24,5.45,13.9,13.9,0,0,1,0,8.65A.69.69,0,0,1,32.11,18.54Z"/></g><g id="Group_31778" data-name="Group 31778"><path id="Path_23935" data-name="Path 23935" class="cls-1" d="M17.23,25.26c-2.25,0-4.94-1.55-7-4.21-2.71-3.54-3.22-7.7-1.2-9.67a.71.71,0,0,1,1,0,.7.7,0,0,1,0,1h0c-1.46,1.43-.87,4.93,1.34,7.8,1.72,2.25,4.07,3.66,5.85,3.66a2.56,2.56,0,0,0,1.33-.34.7.7,0,0,1,1,.25h0a.71.71,0,0,1-.25,1h0A4,4,0,0,1,17.23,25.26Z"/></g><g id="Group_31779" data-name="Group 31779"><path id="Path_23936" data-name="Path 23936" class="cls-1" d="M20.77,34.31c-3.71,0-9.29-4-14.23-10.41C.47,16-1.72,8,1.44,5.43,3.3,3.89,3.52,3.82,3.82,3.79a.71.71,0,0,1,.77.64h0a.72.72,0,0,1-.52.75A18.59,18.59,0,0,0,2.34,6.52C.17,8.31,1.79,15.38,7.66,23a33.88,33.88,0,0,0,8.72,8.29c2.57,1.57,4.7,2,5.84,1.15.61-.43,1.21-.89,1.78-1.38a.71.71,0,0,1,1.19.77h0c-.13.21-.29.39-2.13,1.75A3.75,3.75,0,0,1,20.77,34.31ZM24,31.11l0,0Z"/></g><g id="Group_31780" data-name="Group 31780"><path id="Path_23937" data-name="Path 23937" class="cls-1" d="M25.92,31.51a1.62,1.62,0,0,1-1.3-.64h0l-5.45-7.12a1.63,1.63,0,0,1,.3-2.3l2.47-1.9a1.66,1.66,0,0,1,1.22-.32,1.61,1.61,0,0,1,1.08.63L29.7,27a1.64,1.64,0,0,1-.3,2.3l-2.47,1.89A1.54,1.54,0,0,1,25.92,31.51ZM25.74,30a.24.24,0,0,0,.32,0l2.47-1.9a.23.23,0,0,0,0-.32l-5.45-7.12a.26.26,0,0,0-.16-.09.24.24,0,0,0-.16.05l-2.48,1.89a.28.28,0,0,0-.08.15.25.25,0,0,0,0,.17Z"/></g><g id="Group_31781" data-name="Group 31781"><path id="Path_23938" data-name="Path 23938" class="cls-1" d="M11.26,12.38l-.22,0A1.58,1.58,0,0,1,10,11.73L4.5,4.61a1.65,1.65,0,0,1,.31-2.3L7.28.42a1.64,1.64,0,0,1,2.3.3L15,7.84a1.6,1.6,0,0,1,.33,1.21,1.66,1.66,0,0,1-.63,1.09L12.26,12A1.66,1.66,0,0,1,11.26,12.38Zm-.18-1.5a.22.22,0,0,0,.15.08.25.25,0,0,0,.17,0L13.87,9A.21.21,0,0,0,14,8.87a.26.26,0,0,0-.05-.17L8.46,1.58a.25.25,0,0,0-.32,0L5.67,3.44a.22.22,0,0,0,0,.31Z"/></g></g></g></g></svg>